<?xml version="1.0" encoding="utf-8"?>
<!-- Generator: Adobe Illustrator 22.1.0, SVG Export Plug-In . SVG Version: 6.00 Build 0)  -->
<svg version="1.1" id="Capa_1" xmlns="http://www.w3.org/2000/svg" xmlns:xlink="http://www.w3.org/1999/xlink" x="0px" y="0px"
	 viewBox="0 0 106 28" style="enable-background:new 0 0 106 28;" xml:space="preserve">
<style type="text/css">
	.st0{fill:#282828;}
</style>
<g>
	<g>
		<path class="st0" d="M9.3,7.2c1.7,0,3.7,0.2,5.4,1c1.7,0.8,3,2.2,3,4.4c0,2.2-1.3,3.6-3,4.4c-1.7,0.8-3.8,1.1-5.4,1.1H1.4v8.8
			c0,0.1-0.1,0.2-0.2,0.2c-0.1,0-0.2-0.1-0.2-0.2v-9c0-0.1,0.1-0.2,0.2-0.2h8.2c1.6,0,3.6-0.2,5.2-1c1.6-0.8,2.7-2,2.7-4
			s-1.2-3.3-2.7-4c-1.6-0.7-3.6-1-5.2-1H1.1C1,7.6,0.9,7.5,0.9,7.4c0-0.1,0.1-0.2,0.2-0.2H9.3z"/>
		<path class="st0" d="M1.1,28C0.5,28,0,27.5,0,26.9v-9c0-0.6,0.5-1.1,1.1-1.1h8.2c1.8,0,3.6-0.3,4.8-0.9c1.5-0.7,2.2-1.8,2.2-3.2
			c0-1.5-0.7-2.5-2.2-3.2c-1.2-0.6-3-0.9-4.8-0.9H1.1C0.5,8.5,0,8,0,7.4c0-0.6,0.5-1.1,1.1-1.1h8.2c1.3,0,3.7,0.1,5.8,1.1
			c2.3,1.1,3.5,2.9,3.5,5.2c0,2.3-1.2,4.1-3.5,5.2c-2.1,1-4.5,1.1-5.8,1.1H2.2v8C2.2,27.5,1.7,28,1.1,28z"/>
	</g>
	<g>
		<path class="st0" d="M45.1,7.2c0.1,0,0.2,0.1,0.2,0.2c0,0.1-0.1,0.2-0.2,0.2H28.7c-0.1,0-0.2-0.1-0.2-0.2c0-0.1,0.1-0.2,0.2-0.2
			H45.1z M43.5,17c0.1,0,0.2,0.1,0.2,0.2c0,0.1-0.1,0.2-0.2,0.2H28.7c-0.1,0-0.2-0.1-0.2-0.2c0-0.1,0.1-0.2,0.2-0.2H43.5z M73.2,0.9
			c0.1,0,0.2,0.1,0.2,0.2c0,0.1-0.1,0.2-0.2,0.2H58.4c-0.1,0-0.2-0.1-0.2-0.2c0-0.1,0.1-0.2,0.2-0.2H73.2z M45.1,26.7
			c0.1,0,0.2,0.1,0.2,0.2c0,0.1-0.1,0.2-0.2,0.2H28.7h0c-0.1,0-0.2-0.1-0.2-0.2c0-0.1,0.1-0.2,0.2-0.2h0H45.1z"/>
		<path class="st0" d="M45.1,28H28.7c-0.6,0-1.1-0.5-1.1-1.1c0-0.6,0.5-1.1,1.1-1.1h16.4c0.6,0,1.1,0.5,1.1,1.1
			C46.2,27.5,45.7,28,45.1,28z M43.5,18.3H28.7c-0.6,0-1.1-0.5-1.1-1.1c0-0.6,0.5-1.1,1.1-1.1h14.7c0.6,0,1.1,0.5,1.1,1.1
			C44.6,17.8,44.1,18.3,43.5,18.3z M45.1,8.5H28.7c-0.6,0-1.1-0.5-1.1-1.1c0-0.6,0.5-1.1,1.1-1.1h16.4c0.6,0,1.1,0.5,1.1,1.1
			C46.2,8,45.7,8.5,45.1,8.5z M73.2,2.2H58.4c-0.6,0-1.1-0.5-1.1-1.1c0-0.6,0.5-1.1,1.1-1.1h14.7c0.6,0,1.1,0.5,1.1,1.1
			C74.3,1.7,73.8,2.2,73.2,2.2z"/>
	</g>
	<g>
		<path class="st0" d="M74,7.2c0.1,0,0.2,0.1,0.2,0.2c0,0,0,0,0,0v19.5c0,0.1-0.1,0.2-0.2,0.2c-0.1,0-0.2,0-0.2-0.1l-15.9-19v18.8
			c0,0.1-0.1,0.2-0.2,0.2c-0.1,0-0.2-0.1-0.2-0.2V7.4c0-0.1,0.1-0.2,0.2-0.2c0.1,0,0.2,0,0.2,0.1l15.9,19V7.4v0
			C73.7,7.3,73.9,7.2,74,7.2C74,7.2,74,7.2,74,7.2z"/>
		<path class="st0" d="M57.6,28c-0.6,0-1.1-0.5-1.1-1.1V7.4c0-0.6,0.5-1.1,1.1-1.1c0.3,0,0.7,0.2,0.9,0.4l14.4,17.1V7.4
			c0-0.6,0.5-1.1,1.1-1.1c0.6,0,1.1,0.5,1.1,1.1v19.5c0,0.6-0.5,1.1-1.1,1.1c-0.3,0-0.7-0.2-0.9-0.4L58.7,10.5v16.5
			C58.7,27.5,58.2,28,57.6,28z"/>
	</g>
	<g>
		<path class="st0" d="M95,7.2c0.1,0,0.2,0.1,0.2,0.1l9.8,19.5c0,0,0,0.1,0,0.1c0,0.1-0.1,0.2-0.2,0.2c-0.1,0-0.2-0.1-0.2-0.1L95,8
			l-9.6,19c0,0.1-0.1,0.1-0.2,0.1c-0.1,0-0.2-0.1-0.2-0.2c0,0,0-0.1,0-0.1l9.8-19.5C94.9,7.3,95,7.2,95,7.2C95,7.2,95,7.2,95,7.2z"
			/>
		<path class="st0" d="M104.9,28c-0.4,0-0.8-0.3-1-0.6L95,9.9l-8.8,17.5c-0.2,0.4-0.6,0.6-1,0.6c-0.6,0-1.1-0.5-1.1-1.1
			c0-0.2,0-0.4,0.1-0.5L94,7c0.2-0.3,0.5-0.6,0.9-0.6c0.5,0,0.9,0.2,1.1,0.6l9.8,19.5c0.1,0.1,0.1,0.3,0.1,0.5
			C106,27.5,105.5,28,104.9,28z M104.3,27.2C104.3,27.2,104.3,27.2,104.3,27.2L104.3,27.2z M85.8,27.2L85.8,27.2
			C85.8,27.2,85.8,27.2,85.8,27.2z M84.7,26.6C84.7,26.6,84.7,26.6,84.7,26.6L84.7,26.6z M105.4,26.6L105.4,26.6
			C105.4,26.6,105.4,26.6,105.4,26.6z"/>
	</g>
</g>
</svg>
